<svg id="Layer_1" data-name="Layer 1" xmlns="http://www.w3.org/2000/svg" xmlns:xlink="http://www.w3.org/1999/xlink" viewBox="0 0 1636.74 1310.93"><defs><style>.cls-1{fill:#f79f7b;}.cls-2{fill:#f3f4f1;}.cls-3{fill:#4d5463;}.cls-4{fill:#dd9f64;}.cls-5{fill:#f4ca82;}.cls-6{fill:#0d2e4e;}.cls-7{fill:#c05656;}.cls-8{fill:#fff;}.cls-9{fill:#d45e70;}.cls-10{clip-path:url(#clip-path);}.cls-11{fill:#231f20;}.cls-12{fill:#e8e7e7;}.cls-13{fill:#265761;}.cls-14{fill:#5c8b7e;}.cls-15{fill:#b0b1b5;}.cls-16{fill:#babec8;}.cls-17{fill:#30475e;}.cls-18{fill:#b77150;}.cls-19{fill:#f5d9d8;}.cls-20{fill:#cd675c;}.cls-21{clip-path:url(#clip-path-2);}.cls-22{clip-path:url(#clip-path-3);}.cls-23{fill:#fdbe30;}</style><clipPath id="clip-path" transform="translate(-241.97 -346.61)"><path class="cls-1" d="M812.24,1038.75l.82,1.76a8.54,8.54,0,0,0,5.18,4.54l2.09.66,1.13-7.88a14.37,14.37,0,0,1,6.33-10l5.78-3.79a38,38,0,0,1,20.85-6.24h0a12.49,12.49,0,0,1,12.49,12.49v31a20.41,20.41,0,0,1-20.4,20.41h-.06a5.56,5.56,0,0,0-5.56,5.55v17.45c0,8.22-5.26,13.56-13.47,14-8.78.41-25.27-7.59-25.27-16.27l8.18-47.63a9.23,9.23,0,0,1-8.18-9c-.22-6,3.68-8,6.44-8.72A3.18,3.18,0,0,1,812.24,1038.75Z"/></clipPath><clipPath id="clip-path-2" transform="translate(-241.97 -346.61)"><path class="cls-1" d="M1055.4,1044h0a20.42,20.42,0,0,1-20.35-22.12l1.9-22.66h35.59l3.07,21.47A20.41,20.41,0,0,1,1055.4,1044Z"/></clipPath><clipPath id="clip-path-3" transform="translate(-241.97 -346.61)"><path class="cls-1" d="M1379.73,752.32h0a8.64,8.64,0,0,1-5.49,4.32l-2.16.56-.72-8.05a14.59,14.59,0,0,0-5.89-10.45l-5.65-4.15a38.62,38.62,0,0,0-20.8-7.44h0a12.69,12.69,0,0,0-13.33,12l-2,37.34a14.77,14.77,0,0,0,14,15.53l5.93.31h.06a5.66,5.66,0,0,1,5.34,5.93l-.93,17.68c-.44,8.34,4.6,14,12.91,14.86,8.87.89,26-6.34,26.48-15.14l-5.75-48.71a9.23,9.23,0,0,0,8.77-8.73c.22-3.83-1.22-6.15-3-7.56A5.21,5.21,0,0,0,1379.73,752.32Z"/></clipPath></defs><g id="ground"><path class="cls-2" d="M400.22,1594.83s-79.76-204.24-44.31-499.46,25.73-487.23,227-599.49,668.31-239.28,858.72-59.08S1717.75,786.5,1700,957.28s-47.26,637.55-47.26,637.55Z" transform="translate(-241.97 -346.61)"/><rect class="cls-3" y="1246.65" width="1565.19" height="1"/></g><g id="sofa"><path class="cls-4" d="M438.15,875.37h71.56a21.09,21.09,0,0,1,21.09,21.09v199a0,0,0,0,1,0,0H499.72a82.66,82.66,0,0,1-82.66-82.66V896.46A21.09,21.09,0,0,1,438.15,875.37Z"/><path class="cls-4" d="M1280,875.37h72.27a23,23,0,0,1,23,23V1011.2a84.29,84.29,0,0,1-84.29,84.29h-34a0,0,0,0,1,0,0V898.36A23,23,0,0,1,1280,875.37Z"/><path class="cls-5" d="M580.23,754.52h630.94a92.16,92.16,0,0,1,92.16,92.16v248.8a0,0,0,0,1,0,0H488.06a0,0,0,0,1,0,0V846.69A92.16,92.16,0,0,1,580.23,754.52Z"/><path class="cls-4" d="M517.31,1022.06h756.77a29.25,29.25,0,0,1,29.25,29.25v42a0,0,0,0,1,0,0H488.06a0,0,0,0,1,0,0v-42A29.25,29.25,0,0,1,517.31,1022.06Z"/><path class="cls-5" d="M1510.6,1476.8H764.73a34.7,34.7,0,0,1-34.7-34.7H1545.3A34.69,34.69,0,0,1,1510.6,1476.8Z" transform="translate(-241.97 -346.61)"/><polygon class="cls-3" points="519.51 1247.22 498.2 1247.22 549.22 1130.19 570.53 1130.19 519.51 1247.22"/><polygon class="cls-3" points="1271.88 1247.22 1293.19 1247.22 1242.17 1130.19 1220.87 1130.19 1271.88 1247.22"/></g><g id="woman2"><path class="cls-6" d="M1293.4,1559.12c6.53,1.08,15.83,1.45,24.11-2.6a15.15,15.15,0,0,1,13.72,0l43.76,22.55a11.63,11.63,0,0,1,6.1,10.38v6h-93.3c-5,0-8.75-4.84-7.82-10.07l3.31-18.64C1284.17,1561.74,1288.65,1558.33,1293.4,1559.12Z" transform="translate(-241.97 -346.61)"/><polygon class="cls-1" points="789.33 1165.09 769.4 1220.11 739.12 1218.65 754.3 1165.09 789.33 1165.09"/><path class="cls-6" d="M968.14,1576.75l9.25-17.14a5.57,5.57,0,0,1,6.12-2.8l9.81,2.19a14.08,14.08,0,0,0,7.56-.4l11.38-3.81a7.21,7.21,0,0,1,7,1.4l40.19,35.19a11.22,11.22,0,0,1,3.84,8.45l-2.31,5.67-87.26-17.26A7.86,7.86,0,0,1,968.14,1576.75Z" transform="translate(-241.97 -346.61)"/><path class="cls-1" d="M1275.12,1365.1l61.79,14.87,88.52,10.4a5.48,5.48,0,0,1,3.85,8.61c-3.59,4.94-11.28,9.75-27.64,6l-68.82,19.94a16.48,16.48,0,0,1-14.51-2.65h0a16.49,16.49,0,0,1-6.42-10.76l-.8-5.31-38.42-7.93Z" transform="translate(-241.97 -346.61)"/><path class="cls-7" d="M1311.09,1407.12a.92.92,0,0,1-.6-.23.9.9,0,0,1-.08-1.28l8.46-9.6a.91.91,0,1,1,1.36,1.21l-8.46,9.59A.92.92,0,0,1,1311.09,1407.12Z" transform="translate(-241.97 -346.61)"/><path class="cls-6" d="M1015.24,1368.16l-27.17,147.59a3.6,3.6,0,0,0,3.51,4.42h40.18a3.61,3.61,0,0,0,3.29-2.12l68.09-151Z" transform="translate(-241.97 -346.61)"/><path class="cls-6" d="M764,1269.08s-82.57,134.09,66.77,122.43L1018.9,1383l247.46,19.57a5.71,5.71,0,0,0,6.31-5.25l2.68-36.3a5.71,5.71,0,0,0-4.36-6l-217.4-52q-4.58-1.1-9.24-1.77L862.1,1269.08Z" transform="translate(-241.97 -346.61)"/><path class="cls-8" d="M1096.27,1379.16l-.92-.39c.18-.4,16.79-40.4-16.82-58.55l.48-.88C1113.43,1337.93,1096.45,1378.75,1096.27,1379.16Z" transform="translate(-241.97 -346.61)"/><path class="cls-6" d="M669.09,1208.92a81.17,81.17,0,0,1-13.62-26.64c-3.36-11.55-4.12-24.39,1-35.29,5.82-12.42,18.54-21,22.87-34,3.64-10.91,1.16-24.32,8.86-32.86,12.57-13.94,40-2.09,52.08-16.45,9-10.7,2.77-29,12.26-39.3,9-9.68,26-5.81,36.42-13.84,8.12-6.24,10-17.84,16.94-25.36,9.42-10.22,25.22-7.7,38.54-3.72,15.62,4.67,20,11.68,22.24,19A51,51,0,0,0,880,1022.67c6.73,6.39,11.22,15.27,13.48,24.38,3.05,12.28,2.58,25.12,2,37.76-.95,20.74-2.3,42.13-11.53,60.74-10,20.21-28.21,34.94-45.86,49-15,12-30.17,24-47,33.28s-35.67,15.69-54.89,15.54C710.11,1243.17,684.91,1229.54,669.09,1208.92Z" transform="translate(-241.97 -346.61)"/><path class="cls-9" d="M862.1,1269.08l10.58-50.32L925,1190.47a3.77,3.77,0,0,0,1.78-4.59c-4-11.19-20.43-50.38-63.44-76.57a100.21,100.21,0,0,0-77.49-11.22c-31.57,8.23-76.08,31.75-96.27,98.33a3.1,3.1,0,0,0,1.93,3.83l51.23,15.7,13.59,51.14Z" transform="translate(-241.97 -346.61)"/><path class="cls-1" d="M812.24,1038.75l.82,1.76a8.54,8.54,0,0,0,5.18,4.54l2.09.66,1.13-7.88a14.37,14.37,0,0,1,6.33-10l5.78-3.79a38,38,0,0,1,20.85-6.24h0a12.49,12.49,0,0,1,12.49,12.49v31a20.41,20.41,0,0,1-20.4,20.41h-.06a5.56,5.56,0,0,0-5.56,5.55v17.45c0,8.22-5.26,13.56-13.47,14-8.78.41-25.27-7.59-25.27-16.27l8.18-47.63a9.23,9.23,0,0,1-8.18-9c-.22-6,3.68-8,6.44-8.72A3.18,3.18,0,0,1,812.24,1038.75Z" transform="translate(-241.97 -346.61)"/><g class="cls-10"><path class="cls-7" d="M846.69,1082.32a28.1,28.1,0,0,1-15.27-8.86c-1.07-1.24-2.68-.24-2.61,1.4.3,7.19,8.29,17.32,19.86,19.12Z" transform="translate(-241.97 -346.61)"/></g><path class="cls-1" d="M860.75,1107.4s-19.16,30.16-87.81-4.72C772.94,1102.68,816.84,1081.64,860.75,1107.4Z" transform="translate(-241.97 -346.61)"/><path class="cls-6" d="M850.46,1039.21a1.44,1.44,0,0,0,.93-2.44c-2.1-2.13-6.42-4.52-14-.79C828,1040.61,844,1039.72,850.46,1039.21Z" transform="translate(-241.97 -346.61)"/><path class="cls-6" d="M859.92,1039a1.44,1.44,0,0,1-.93-2.44c2.09-2.13,6.41-4.51,14-.79C882.35,1040.39,866.4,1039.5,859.92,1039Z" transform="translate(-241.97 -346.61)"/><path class="cls-6" d="M861.45,1045.08c0,1.91.77,3.45,1.72,3.45s1.72-1.54,1.72-3.45-.77-3.45-1.72-3.45S861.45,1043.17,861.45,1045.08Z" transform="translate(-241.97 -346.61)"/><ellipse class="cls-6" cx="603.49" cy="699.28" rx="1.72" ry="3.45"/><path class="cls-8" d="M859.64,1066.49c-1.73.7-5.72,1.76-11.54,0a.34.34,0,0,0-.38.52c1.63,2.4,6.95,8.81,12.34,0A.34.34,0,0,0,859.64,1066.49Z" transform="translate(-241.97 -346.61)"/><path class="cls-6" d="M817,1022.27a12.72,12.72,0,0,0,19.67,9.47c3.33-2.19,6.12-6.12,10.1-5.87,3.81.24,6.74,4.4,10.54,4,4-.43,5.7-5.43,9.23-7.32,4.83-2.59,10.68,1.45,16.11.76,4.66-.59,8.35-4.88,9-9.53s-1.39-9.41-4.62-12.8a29.08,29.08,0,0,0-12-7.07,49.65,49.65,0,0,0-55.59,17.6,16.65,16.65,0,0,0-3.23,6.35,7.31,7.31,0,0,0,1.68,6.68" transform="translate(-241.97 -346.61)"/><path class="cls-11" d="M873.49,1218.49a1.19,1.19,0,0,1-.32,0,1,1,0,0,1-.62-1.27c.08-.26,8.73-25.68,6.72-41.48s-15.08-36-15.22-36.18a1,1,0,0,1,1.68-1.09c.55.84,13.44,20.75,15.52,37s-6.45,41.33-6.81,42.39A1,1,0,0,1,873.49,1218.49Z" transform="translate(-241.97 -346.61)"/><path class="cls-11" d="M748.13,1218.57H748a1,1,0,0,1-.83-1.15l7.48-45.62a1,1,0,1,1,2,.32l-7.47,45.62A1,1,0,0,1,748.13,1218.57Z" transform="translate(-241.97 -346.61)"/><polygon class="cls-1" points="637.78 868.32 703.53 921.66 711.81 880.51 677.79 846.7 637.78 868.32"/><polygon class="cls-1" points="453.99 906.59 460.17 857.14 506.16 870.96 499.23 918.22 453.99 906.59"/><path class="cls-1" d="M910.7,1286.33,909.13,1276a15.71,15.71,0,0,0-10.55-12.55L872,1254.53l-175.55-5.3c-12.73,68.1,142.62,30.29,167.43,23.84l42.31,16.83A3.31,3.31,0,0,0,910.7,1286.33Z" transform="translate(-241.97 -346.61)"/><path class="cls-7" d="M745.35,1251.71H710.52a1,1,0,0,1,0-2h34.83a1,1,0,0,1,0,2Z" transform="translate(-241.97 -346.61)"/><path class="cls-7" d="M908.66,1277.55a.84.84,0,0,1-.35-.07l-25.47-9.63a1,1,0,1,1,.71-1.87l25.46,9.63a1,1,0,0,1-.35,1.94Z" transform="translate(-241.97 -346.61)"/><path class="cls-7" d="M907.47,1271.61a.84.84,0,0,1-.35-.07l-23.27-8.8a1,1,0,1,1,.71-1.87l23.26,8.8a1,1,0,0,1,.59,1.29A1,1,0,0,1,907.47,1271.61Z" transform="translate(-241.97 -346.61)"/><path class="cls-7" d="M910.12,1283.5a1.13,1.13,0,0,1-.32,0l-26.91-9.32a1,1,0,0,1,.65-1.89l26.91,9.32a1,1,0,0,1-.33,1.94Z" transform="translate(-241.97 -346.61)"/></g><g id="massege_box" data-name="massege box"><path class="cls-12" d="M896.89,767.18H753.06A15.86,15.86,0,0,0,737.19,783V809.8H710.75a1.3,1.3,0,0,0-.62,2.45l27.06,14.55v9.76a15.86,15.86,0,0,0,15.87,15.86H896.89a15.87,15.87,0,0,0,15.87-15.86V783A15.87,15.87,0,0,0,896.89,767.18Z" transform="translate(-241.97 -346.61)"/><path class="cls-8" d="M774.32,808.31a6.22,6.22,0,1,1-6.21-6.22A6.21,6.21,0,0,1,774.32,808.31Z" transform="translate(-241.97 -346.61)"/><path class="cls-8" d="M800.75,808.31a6.22,6.22,0,1,1-6.21-6.22A6.21,6.21,0,0,1,800.75,808.31Z" transform="translate(-241.97 -346.61)"/><path class="cls-8" d="M827.18,808.31a6.22,6.22,0,1,1-6.21-6.22A6.21,6.21,0,0,1,827.18,808.31Z" transform="translate(-241.97 -346.61)"/><path class="cls-8" d="M853.61,808.31a6.22,6.22,0,1,1-6.21-6.22A6.21,6.21,0,0,1,853.61,808.31Z" transform="translate(-241.97 -346.61)"/><path class="cls-8" d="M880,808.31a6.22,6.22,0,1,1-6.21-6.22A6.21,6.21,0,0,1,880,808.31Z" transform="translate(-241.97 -346.61)"/><path class="cls-12" d="M1112.47,724.56h143.84a15.86,15.86,0,0,1,15.86,15.86v26.76h26.45a1.3,1.3,0,0,1,.61,2.45l-27.06,14.55v9.75a15.86,15.86,0,0,1-15.86,15.87H1112.47a15.86,15.86,0,0,1-15.86-15.87V740.42A15.86,15.86,0,0,1,1112.47,724.56Z" transform="translate(-241.97 -346.61)"/><circle class="cls-8" cx="999.29" cy="419.08" r="6.21"/><path class="cls-8" d="M1208.61,765.69a6.22,6.22,0,1,0,6.22-6.22A6.21,6.21,0,0,0,1208.61,765.69Z" transform="translate(-241.97 -346.61)"/><path class="cls-8" d="M1182.18,765.69a6.22,6.22,0,1,0,6.22-6.22A6.22,6.22,0,0,0,1182.18,765.69Z" transform="translate(-241.97 -346.61)"/><circle class="cls-8" cx="920" cy="419.08" r="6.21"/><path class="cls-8" d="M1129.32,765.69a6.22,6.22,0,1,0,6.22-6.22A6.22,6.22,0,0,0,1129.32,765.69Z" transform="translate(-241.97 -346.61)"/></g><g id="plants"><path class="cls-13" d="M1701.17,1403s7.29-158.17,63.74-156.35,113.8,65.55,113.8,65.55l-105.61-11.83L1738.5,1403Z" transform="translate(-241.97 -346.61)"/><path class="cls-14" d="M1719.88,1404.59c-.23-.57-.59-1.43,35.73-113.73a17.18,17.18,0,0,1,20.67-11.31l82.66,21.63-.51,1.93-82.66-21.63a15.17,15.17,0,0,0-18.26,10c-22.12,68.4-35.47,110.55-35.71,112.74l-.81-.09Z" transform="translate(-241.97 -346.61)"/><path class="cls-14" d="M1710.08,1403l-8.58-114.26a21.55,21.55,0,0,0-2.39-8.38l-81.51-155.73a.87.87,0,0,0-1.61.64l41.35,164.85q.63,2.51,1.07,5.06L1676.9,1403Z" transform="translate(-241.97 -346.61)"/><path class="cls-13" d="M1691.81,1401.65a1,1,0,0,1-1-.88l-13.14-108.42a113.16,113.16,0,0,0-7.12-28l-43.81-110.62a1,1,0,0,1,1.86-.73l43.81,110.62a115.13,115.13,0,0,1,7.25,28.52l13.14,108.42a1,1,0,0,1-.87,1.11Z" transform="translate(-241.97 -346.61)"/><path class="cls-13" d="M1701.17,1403l-38.12-69.09a52.69,52.69,0,0,0-63-24.48l-102.39,34.48,105.75,2.3a24,24,0,0,1,16.93,7.53l47.69,50.51h37.37" transform="translate(-241.97 -346.61)"/><path class="cls-14" d="M1685.52,1404.87l-49.59-55.33a50.33,50.33,0,0,0-43-16.39l-63.73,7.16-.22-2,63.72-7.16a52.33,52.33,0,0,1,44.73,17l49.59,55.33Z" transform="translate(-241.97 -346.61)"/><polygon class="cls-15" points="1502.3 1246.65 1422.02 1246.65 1405.47 1054.67 1521.46 1054.67 1502.3 1246.65"/><polygon class="cls-16" points="1463.47 1054.67 1463.47 1246.65 1502.3 1246.65 1521.46 1054.67 1463.47 1054.67"/></g><path class="cls-1" d="M715.29,1072.5l-13.07-50.36-53.82-4.74s29.23,77.28,33.13,82.2c.88-4.39,2.2-14.32,5.21-17.66C694.24,1073.62,703.62,1073.51,715.29,1072.5Z" transform="translate(-241.97 -346.61)"/><polygon class="cls-1" points="355.98 1184.57 356.83 1230.88 396.41 1230.88 396.12 1184.57 355.98 1184.57"/><path class="cls-17" d="M602.23,1564.47c6.52,1.08,15.81,1.44,24.08-2.6a15.18,15.18,0,0,1,13.72,0l43.71,22.53a11.6,11.6,0,0,1,6.1,10.37v6H596.62c-5,0-8.74-4.83-7.81-10.06l3.3-18.62C593,1567.09,597.48,1563.68,602.23,1564.47Z" transform="translate(-241.97 -346.61)"/><polygon class="cls-1" points="249.4 1192.04 246.27 1233.91 285.85 1233.91 289.54 1192.04 249.4 1192.04"/><path class="cls-17" d="M494.48,1564.47c6.52,1.08,15.82,1.44,24.08-2.6a15.18,15.18,0,0,1,13.72,0L576,1584.41a11.6,11.6,0,0,1,6.1,10.37v6H488.87c-5,0-8.73-4.83-7.81-10.06l3.31-18.62C485.26,1567.09,489.73,1563.68,494.48,1564.47Z" transform="translate(-241.97 -346.61)"/><path class="cls-17" d="M465.81,1083l15.11,460.2h51.73a7.13,7.13,0,0,0,7.12-6.7L561.48,1176l24.21,367.21h55.58a7.13,7.13,0,0,0,7.13-7.22l-5.8-453.35L575.43,1086l-89.61,1.86" transform="translate(-241.97 -346.61)"/><path class="cls-14" d="M457.7,1108.65,494.3,994.6l-34.63-14.48a5.2,5.2,0,0,1-2.71-7c10.79-22.94,61.41-116.45,159.05-88.37,99.21,28.53,102,107.92,100.72,130.07a6.84,6.84,0,0,1-6.11,6.41l-51.71,5.51L649.63,1128a26.49,26.49,0,0,1-14.08,21.06c-28.16,14.69-98.45,41-169.54-13.53A24.44,24.44,0,0,1,457.7,1108.65Z" transform="translate(-241.97 -346.61)"/><path class="cls-11" d="M658.7,1027.7h0a1,1,0,0,0,1.18-.77l7.32-35.23a1,1,0,0,0-.77-1.17h0a1,1,0,0,0-1.17.77l-7.33,35.22A1,1,0,0,0,658.7,1027.7Z" transform="translate(-241.97 -346.61)"/><path class="cls-11" d="M524.77,1009.07a1,1,0,0,0,1.09-.53l22.92-46.07a1,1,0,1,0-1.77-.88l-22.93,46.06a1,1,0,0,0,.45,1.33Z" transform="translate(-241.97 -346.61)"/><path class="cls-1" d="M673.78,1155.71l-27.73-20.47v0a12.65,12.65,0,0,0-6.14-4.66L615.54,1122l-.2.15-93.09-61.57a12.89,12.89,0,0,1-5.54-13.13l6.79-36.59a4.07,4.07,0,0,0-2.36-4.45l-48.72-21.3s-16.68,83.1,1,97.32c15.11,12.14,98.77,51.24,122.92,62.41h0L612.44,1163a13.49,13.49,0,0,0,7,2.7l7.75.66a13.41,13.41,0,0,0,12.44-6.17l6.79-10.69.05-.1,23.53,11.5a2.9,2.9,0,0,0,2.7.1l.61-.29A2.92,2.92,0,0,0,673.78,1155.71Z" transform="translate(-241.97 -346.61)"/><path class="cls-7" d="M494.15,1057.53a1,1,0,0,1-.14-2c23.66-3.41,23.71-3.27,24-2.16a1,1,0,0,1-.67,1.25,1.1,1.1,0,0,1-.57,0h0c-1.76,0-14.59,1.75-22.49,2.89Zm22-3.57a1,1,0,0,0,.14.28A1,1,0,0,1,516.13,1054Zm0,0Z" transform="translate(-241.97 -346.61)"/><path class="cls-7" d="M646.46,1150.37a1,1,0,0,1-.85-.48l-3.92-6.47a1,1,0,0,1,1.71-1l3.92,6.47a1,1,0,0,1-.34,1.38A1,1,0,0,1,646.46,1150.37Z" transform="translate(-241.97 -346.61)"/><path class="cls-7" d="M641.78,1156.84a1,1,0,0,1-.86-.48l-3.92-6.47a1,1,0,0,1,.34-1.37,1,1,0,0,1,1.37.33l3.92,6.47a1,1,0,0,1-.34,1.38A1.06,1.06,0,0,1,641.78,1156.84Z" transform="translate(-241.97 -346.61)"/><path class="cls-7" d="M636.55,1163.31a1,1,0,0,1-.86-.48l-3.92-6.47a1,1,0,0,1,.34-1.38,1,1,0,0,1,1.37.34l3.92,6.47a1,1,0,0,1-.33,1.37A1,1,0,0,1,636.55,1163.31Z" transform="translate(-241.97 -346.61)"/><path class="cls-18" d="M664.49,854.21s10-12.3,12.55-36.87-61.41-37-61.41-37S555.56,829,603.9,868.72Z" transform="translate(-241.97 -346.61)"/><path class="cls-1" d="M608.43,828.77c2.8-1.4,7.05,3.18,7.05,3.18.46,1.36,2.65,8.64,3.71,12.15a.57.57,0,0,0,1.1,0l3.78-13.48a14.12,14.12,0,0,1,7.67-8.75l.13-.06a10.52,10.52,0,0,1,9.45.29c12.2,6.77,28.12,8.09,28.12,8.09L663.86,866a14.34,14.34,0,0,1-16.36,12l-5.7-.89h-.06a5.48,5.48,0,0,0-6.25,4.56l-2.64,17c-1.25,8-7.17,12.4-15.23,11.53-8.6-.93-23.44-11.21-22.13-19.66l15.18-45.11a9,9,0,0,1-6.59-10C604.64,831.67,606.47,829.75,608.43,828.77Z" transform="translate(-241.97 -346.61)"/><path class="cls-7" d="M628.36,866.81a27.8,27.8,0,0,0,11.87,10.27,5.5,5.5,0,0,0-4.75,4.58l-.18,1.2a20.24,20.24,0,0,1-9.69-15.09A1.49,1.49,0,0,1,628.36,866.81Z" transform="translate(-241.97 -346.61)"/><path class="cls-8" d="M660.36,863.4a35.7,35.7,0,0,1-11.11-2.07.83.83,0,0,0-1.07,1.08c1.9,4.45,7.11,14.09,12.81,2A.73.73,0,0,0,660.36,863.4Z" transform="translate(-241.97 -346.61)"/><path class="cls-18" d="M653.52,836.71a1.34,1.34,0,0,0,1.31-2c-1.5-2.34-5-5.33-12.56-3.39C632.84,833.7,647.53,835.94,653.52,836.71Z" transform="translate(-241.97 -346.61)"/><path class="cls-18" d="M667.93,839.89c-2.19-.54-4.22-1.12-5.77-1.57a1.35,1.35,0,0,1-.38-2.4,8.32,8.32,0,0,1,7-1.14Z" transform="translate(-241.97 -346.61)"/><path class="cls-11" d="M662.39,844.16c-.36,1.73,0,3.28.91,3.47s1.86-1.08,2.22-2.81,0-3.29-.9-3.47S662.76,842.42,662.39,844.16Z" transform="translate(-241.97 -346.61)"/><path class="cls-11" d="M646.13,841.5c-.36,1.74,0,3.29.91,3.47s1.86-1.07,2.22-2.81,0-3.28-.91-3.47S646.49,839.77,646.13,841.5Z" transform="translate(-241.97 -346.61)"/><path class="cls-7" d="M613.13,839.37a1.66,1.66,0,0,0,1.58-2.72l-5-5.57a1.66,1.66,0,0,0-2.48,2.2l5,5.57A1.63,1.63,0,0,0,613.13,839.37Z" transform="translate(-241.97 -346.61)"/><path class="cls-18" d="M626.85,782.12s13.88-45.62-36.34-38.22-79.9,88-79.9,88h0a69,69,0,0,0,72.95-27.74c7.94-11.32,18.17-19.47,30.25-15.24Z" transform="translate(-241.97 -346.61)"/><path class="cls-19" d="M605.28,787.87s14.45-10.89,22.37-6l1.25,2-23.11,6Z" transform="translate(-241.97 -346.61)"/><g id="man2"><path class="cls-20" d="M1187.69,1144.88l-10.32-44.26c-8.32-29.6-30.84-79.3-89.65-93.4-19.32-4.63-39.28-3.21-58.78.58-67.78,13.15-90.13,64-97.41,92.82h175.36l15.65,35.77Z" transform="translate(-241.97 -346.61)"/><path class="cls-1" d="M1127.77,1137.07l3.47,11.37a27.42,27.42,0,0,1-5.35,25.81l-68,79.73,3.54,25.39,102.28-80.77c10.7-8.45,19.09-21.85,16.82-35.3l-2.62-19.69Z" transform="translate(-241.97 -346.61)"/><path class="cls-11" d="M1106.68,1101.13a1,1,0,0,1-1-.89l-3.12-30.23a1,1,0,0,1,.9-1.1,1,1,0,0,1,1.09.89l3.12,30.23a1,1,0,0,1-.9,1.1Z" transform="translate(-241.97 -346.61)"/><path class="cls-1" d="M1055.4,1044h0a20.42,20.42,0,0,1-20.35-22.12l1.9-22.66h35.59l3.07,21.47A20.41,20.41,0,0,1,1055.4,1044Z" transform="translate(-241.97 -346.61)"/><g class="cls-21"><path class="cls-7" d="M1032,1017.22s26,10.21,39.75-9.61l-42.66-13.81Z" transform="translate(-241.97 -346.61)"/></g><path class="cls-6" d="M1019.54,974.79l-1.34-35.37a16.94,16.94,0,0,1,16.93-17.58h38.64a16.94,16.94,0,0,1,16.92,17.7l-1.58,35.25Z" transform="translate(-241.97 -346.61)"/><path class="cls-1" d="M1086.08,982.09a11,11,0,0,0,10.4-10.35c.26-4.54-1.45-7.29-3.54-9a6.17,6.17,0,0,0-9.23,2h0" transform="translate(-241.97 -346.61)"/><path class="cls-1" d="M1024.59,982.09a11,11,0,0,1-10.4-10.35c-.26-4.54,1.44-7.29,3.54-9a6.16,6.16,0,0,1,9.22,2h0" transform="translate(-241.97 -346.61)"/><path class="cls-1" d="M1055.16,1016.78h0c-17.19,0-31.12-17-31.12-34.2V963.44l2.88-13.29a13.63,13.63,0,0,1,13.33-10.75h29a13.65,13.65,0,0,1,13.15,10l3.84,14v19.14C1086.28,999.76,1072.35,1016.78,1055.16,1016.78Z" transform="translate(-241.97 -346.61)"/><path class="cls-6" d="M1063,957.83a1.64,1.64,0,0,1-1.06-2.77c2.38-2.41,7.29-5.12,15.86-.89C1088.44,959.43,1070.33,958.42,1063,957.83Z" transform="translate(-241.97 -346.61)"/><path class="cls-6" d="M1070.6,965.41c0,2.16-.87,3.92-1.95,3.92s-2-1.76-2-3.92.87-3.92,2-3.92S1070.6,963.25,1070.6,965.41Z" transform="translate(-241.97 -346.61)"/><path class="cls-6" d="M1047.34,957.83a1.63,1.63,0,0,0,1.05-2.77c-2.38-2.41-7.28-5.12-15.86-.89C1021.88,959.43,1040,958.42,1047.34,957.83Z" transform="translate(-241.97 -346.61)"/><path class="cls-6" d="M1039.71,965.41c0,2.16.88,3.92,2,3.92s1.95-1.76,1.95-3.92-.88-3.92-1.95-3.92S1039.71,963.25,1039.71,965.41Z" transform="translate(-241.97 -346.61)"/><path class="cls-8" d="M1044.73,994.53h20.84a2,2,0,0,1,1.45,3.35c-4.49,4.77-14,11.74-23.79-.07A2,2,0,0,1,1044.73,994.53Z" transform="translate(-241.97 -346.61)"/><path class="cls-7" d="M1086.73,970.48a1.23,1.23,0,0,1-1-.5,1.25,1.25,0,0,1,.26-1.74l4.76-3.52a1.24,1.24,0,0,1,1.47,2l-4.75,3.52A1.26,1.26,0,0,1,1086.73,970.48Z" transform="translate(-241.97 -346.61)"/><path class="cls-7" d="M1024.58,970.06a1.16,1.16,0,0,1-.64-.19l-5.05-3.09a1.24,1.24,0,0,1,1.3-2.12l5,3.09a1.25,1.25,0,0,1-.66,2.31Z" transform="translate(-241.97 -346.61)"/><path class="cls-6" d="M1024,944.35s-16.06-5.53-18.43-32.13c0,0,87.72-22.53,85.08,27.32C1090.69,939.54,1053.26,958.57,1024,944.35Z" transform="translate(-241.97 -346.61)"/><polygon class="cls-1" points="672.09 1179.48 667.29 1225.87 704.7 1225.87 713.61 1179.48 672.09 1179.48"/><path class="cls-6" d="M958.26,1592.68h0c4.09-20.81-10.54-40.41-30.18-40.41h-2.76c-15,0-27.87,11.73-30.41,27.78l-2,12.63Z" transform="translate(-241.97 -346.61)"/><path class="cls-6" d="M906.94,1526.09h53.43a6,6,0,0,0,5.7-4.82l10.63-45.61H903.78l-2.71,43.62A6.19,6.19,0,0,0,906.94,1526.09Z" transform="translate(-241.97 -346.61)"/><polygon class="cls-1" points="884.08 1179.48 876.13 1226.15 838.73 1226.15 839.93 1179.48 884.08 1179.48"/><path class="cls-6" d="M1069.11,1593h0c-4.1-20.81,10.54-40.42,30.17-40.42H1102c15,0,27.87,11.74,30.41,27.79l2,12.63Z" transform="translate(-241.97 -346.61)"/><path class="cls-6" d="M1071.93,1526.09h56.88a4.09,4.09,0,0,0,3.89-3.3l11-47.13h-72.91l-2.85,45.77A4.23,4.23,0,0,0,1071.93,1526.09Z" transform="translate(-241.97 -346.61)"/></g><path class="cls-11" d="M1000.05,1101.62a1,1,0,0,1-1-1V1069a1,1,0,0,1,2,0v31.66A1,1,0,0,1,1000.05,1101.62Z" transform="translate(-241.97 -346.61)"/><g id="laptop"><path class="cls-12" d="M1074.76,1295.53H934.69l17.5-87a7.58,7.58,0,0,1,7.42-6.08h124.62a7.58,7.58,0,0,1,7.43,9.07Z" transform="translate(-241.97 -346.61)"/><path class="cls-8" d="M1027.85,1249c-1.53,7.6-8.93,13.76-16.53,13.76s-12.52-6.16-11-13.76,8.92-13.76,16.52-13.76S1029.37,1241.38,1027.85,1249Z" transform="translate(-241.97 -346.61)"/><polygon class="cls-8" points="692.73 948.92 601.68 936.81 695.84 933.41 692.73 948.92"/><polygon class="cls-12" points="601.68 936.81 692.73 948.92 689.22 951.48 604.56 939.86 601.68 936.81"/><polygon class="cls-3" points="689.22 951.48 829.62 951.65 832.79 948.92 692.73 948.92 689.22 951.48"/><rect class="cls-12" x="76.11" y="1136.91" width="42.69" height="24.44" rx="6.73"/><path class="cls-16" d="M434.26,1657.54c-8.47,0-30.48-2-51-20.24-29.4-26.13-44.3-73.71-44.3-141.43h1c0,67.4,14.78,114.73,43.94,140.67,25.71,22.87,53.67,19.89,53.95,19.86H705.47c40.13,0,67.84-19.32,84.69-59.05,14.79-34.86,19.24-79.31,23.55-122.3,2.06-20.53,4-39.92,7-57.12,8-45.74,32.53-76.71,51.71-94.63,20.78-19.42,39.93-28.14,40.12-28.23l.41.91c-.19.09-19.22,8.76-39.88,28.07-19.05,17.82-43.43,48.6-51.37,94-3,17.17-5,36.54-7,57.05-4.32,43.06-8.78,87.59-23.63,122.59-17,40.14-45,59.66-85.61,59.66H437.88C437.83,1657.4,436.53,1657.54,434.26,1657.54Z" transform="translate(-241.97 -346.61)"/><rect class="cls-16" x="82.34" y="1136.91" width="1" height="24.44"/><rect class="cls-16" x="111.18" y="1136.91" width="1" height="24.44"/></g><g id="man1"><path class="cls-6" d="M1339.89,764.59A33.84,33.84,0,0,1,1319,734.92c0-.41,0-.83,0-1.25-.06-11.17.69-24.09,1.92-27.74,1.46-4.3,3.95-6.73,7.29-7.61,13-3.46,37.49-.43,55.41,10.13,31.66,18.65,14.54,65.48,0,74.57Z" transform="translate(-241.97 -346.61)"/><path class="cls-1" d="M1379.73,752.32h0a8.64,8.64,0,0,1-5.49,4.32l-2.16.56-.72-8.05a14.59,14.59,0,0,0-5.89-10.45l-5.65-4.15a38.62,38.62,0,0,0-20.8-7.44h0a12.69,12.69,0,0,0-13.33,12l-2,37.34a14.77,14.77,0,0,0,14,15.53l5.93.31h.06a5.66,5.66,0,0,1,5.34,5.93l-.93,17.68c-.44,8.34,4.6,14,12.91,14.86,8.87.89,26-6.34,26.48-15.14l-5.75-48.71a9.23,9.23,0,0,0,8.77-8.73c.22-3.83-1.22-6.15-3-7.56A5.21,5.21,0,0,0,1379.73,752.32Z" transform="translate(-241.97 -346.61)"/><g class="cls-22"><path class="cls-7" d="M1343.41,792.9a28.51,28.51,0,0,0,15.95-8.16,1.53,1.53,0,0,1,2.56,1.55c-2.11,5.83-7.1,13.24-18.93,14.45Z" transform="translate(-241.97 -346.61)"/></g><path class="cls-8" d="M1327.69,774.91a36.65,36.65,0,0,0,11.63.28.84.84,0,0,1,.85,1.31c-2.85,4.08-10.15,12.7-13.34-.67A.76.76,0,0,1,1327.69,774.91Z" transform="translate(-241.97 -346.61)"/><path class="cls-6" d="M1340.63,746.41a1.39,1.39,0,0,1-.89-2.34c2-2,6.15-4.32,13.38-.75C1362.12,747.75,1346.84,746.9,1340.63,746.41Z" transform="translate(-241.97 -346.61)"/><path class="cls-6" d="M1325.3,746.56c2.31-.08,4.62-.24,6.27-.37a1.38,1.38,0,0,0,.9-2.34,8.87,8.87,0,0,0-6.89-2.61Z" transform="translate(-241.97 -346.61)"/><path class="cls-6" d="M1330.1,752c0,1.83-.73,3.31-1.64,3.31s-1.65-1.48-1.65-3.31.74-3.3,1.65-3.3S1330.1,750.21,1330.1,752Z" transform="translate(-241.97 -346.61)"/><path class="cls-6" d="M1347.07,752.8c0,1.83-.74,3.31-1.65,3.31s-1.65-1.48-1.65-3.31.74-3.3,1.65-3.3S1347.07,751,1347.07,752.8Z" transform="translate(-241.97 -346.61)"/><path class="cls-7" d="M1380.53,760.31a1.71,1.71,0,0,1-1-3.08l6.17-4.57a1.71,1.71,0,1,1,2,2.74l-6.17,4.57A1.66,1.66,0,0,1,1380.53,760.31Z" transform="translate(-241.97 -346.61)"/><path class="cls-1" d="M1485.06,938.66s13.39,64.28-15.65,75.75l-24.31-79.52Z" transform="translate(-241.97 -346.61)"/><path class="cls-6" d="M1468.44,1061.29s9.18,50.4-41.91,57.66-155.23,27.8-137.71-70.63Z" transform="translate(-241.97 -346.61)"/><path class="cls-23" d="M1474.12,1047.91l-14.66-104.36,33.26-6.36S1477.81,805.38,1368,805.45C1267.65,805.51,1247.34,916,1247.34,916l47.45,18.92-10.09,106.63a6.74,6.74,0,0,0,4.12,6.8c26.39,11,159.75,63,185,3.89A6.68,6.68,0,0,0,1474.12,1047.91Z" transform="translate(-241.97 -346.61)"/><path class="cls-11" d="M1294.79,935.89a1.45,1.45,0,0,1-.29,0,1,1,0,0,1-.67-1.25L1305,896.77a1,1,0,0,1,1.92.57l-11.14,37.83A1,1,0,0,1,1294.79,935.89Z" transform="translate(-241.97 -346.61)"/><path class="cls-11" d="M1459.46,944.55a1,1,0,0,1-1-.89c0-.46-5-45.87-17.71-75.55a1,1,0,0,1,1.84-.79c12.84,30,17.81,75.67,17.86,76.12a1,1,0,0,1-.89,1.1Z" transform="translate(-241.97 -346.61)"/><path class="cls-1" d="M1257.31,919.94l-6,32.1a61.3,61.3,0,0,1-24.76,38.78L1153,1048.25l10.8,24.62,103.62-56.47a46.53,46.53,0,0,0,23.08-35.93l4.31-45.58Z" transform="translate(-241.97 -346.61)"/><path class="cls-1" d="M1144.38,1046.38l-1.52,4.67a7.73,7.73,0,0,0,.78,6.49l14.25,23.07a6.09,6.09,0,0,0,10.52-.28h0a6.46,6.46,0,0,0,.36-5.4c-2.22-5.73-8.14-19-18.73-29.89A3.41,3.41,0,0,0,1144.38,1046.38Z" transform="translate(-241.97 -346.61)"/><path class="cls-7" d="M1145.63,1061.77a1,1,0,0,1-.62-1.78c.07-.06,7-5.66,7-11.73a1,1,0,0,1,1-1h0a1,1,0,0,1,1,1c.07,7-7.41,13.06-7.73,13.31A1,1,0,0,1,1145.63,1061.77Z" transform="translate(-241.97 -346.61)"/><path class="cls-7" d="M1152.46,1070.9a1,1,0,0,1-.78-.37,1,1,0,0,1,.16-1.41c.07-.06,7-5.65,7-11.72a1,1,0,0,1,1-1h0a1,1,0,0,1,1,1c.07,7-7.41,13.06-7.73,13.31A1,1,0,0,1,1152.46,1070.9Z" transform="translate(-241.97 -346.61)"/><path class="cls-7" d="M1157.88,1081a1,1,0,0,1-.62-1.78c.07-.06,7-5.66,7-11.73a1,1,0,0,1,1-1h0a1,1,0,0,1,1,1c.07,7.06-7.41,13.06-7.73,13.32A1,1,0,0,1,1157.88,1081Z" transform="translate(-241.97 -346.61)"/></g></svg>